PathFileType	4	(X/Y/Z)	C:\Users\italobelli\Desktop\GitHub\PTbot_officialCBL\Personal_Results\ABD03_noisy1.trc
DataRate	CameraRate	NumFrames	NumMarkers	Units	OrigDataRate	OrigDataStartFrame	OrigNumFrames
106.533333	106.533333	42	9	m	106.533333	401	800
Frame#	Time		gu		centelbow		EpL		centpxt8		centijc7		ij		ts		aa		ai
			X1	Y1	Z1	X2	Y2	Z2	X3	Y3	Z3	X4	Y4	Z4	X5	Y5	Z5	X6	Y6	Z6	X7	Y7	Z7	X8	Y8	Z8	X9	Y9	Z9

401	3.7547	-0.11081	0.065137	0.098329	-0.044367	0.29103	0.18906	-0.064525	0.30191	0.16668	-0.046816	-0.15316	-0.008669	-0.046816	0.031938	-0.008669	0	0	0	-0.14465	-0.019725	0.048171	-0.15349	0.089208	0.095813	-0.14397	-0.060211	0.15415
402	3.7641	-0.11097	0.065172	0.09828	-0.044677	0.29118	0.18913	-0.064804	0.30204	0.16672	-0.046816	-0.15316	-0.008669	-0.046816	0.031938	-0.008669	0	0	0	-0.14469	-0.019724	0.048072	-0.15364	0.089207	0.095685	-0.14406	-0.060193	0.15405
403	3.7735	-0.11113	0.065207	0.098231	-0.04501	0.29133	0.18921	-0.065106	0.30217	0.16677	-0.046816	-0.15316	-0.008669	-0.046816	0.031938	-0.008669	0	0	0	-0.14473	-0.019723	0.047971	-0.15381	0.089206	0.095557	-0.14415	-0.060176	0.15395
404	3.7829	-0.11129	0.065243	0.098183	-0.045365	0.29148	0.1893	-0.065429	0.3023	0.16684	-0.046816	-0.15316	-0.008669	-0.046816	0.031938	-0.008669	0	0	0	-0.14476	-0.019722	0.047869	-0.15397	0.089203	0.095428	-0.14424	-0.060162	0.15385
405	3.7922	-0.11145	0.06528	0.098135	-0.045742	0.29163	0.1894	-0.065774	0.30243	0.1669	-0.046816	-0.15316	-0.008669	-0.046816	0.031938	-0.008669	0	0	0	-0.14479	-0.019721	0.047764	-0.15413	0.089199	0.0953	-0.14434	-0.06015	0.15374
406	3.8016	-0.11161	0.065317	0.098087	-0.046141	0.29178	0.18951	-0.06614	0.30256	0.16698	-0.046816	-0.15316	-0.008669	-0.046816	0.031938	-0.008669	0	0	0	-0.14482	-0.01972	0.047658	-0.1543	0.089194	0.095171	-0.14443	-0.060141	0.15363
407	3.811	-0.11177	0.065354	0.09804	-0.046561	0.29193	0.18964	-0.066527	0.30269	0.16707	-0.046816	-0.15316	-0.008669	-0.046816	0.031938	-0.008669	0	0	0	-0.14484	-0.019719	0.047551	-0.15446	0.089189	0.095043	-0.14453	-0.060133	0.15353
408	3.8204	-0.11194	0.065391	0.097994	-0.047002	0.29208	0.18977	-0.066935	0.30282	0.16717	-0.046816	-0.15316	-0.008669	-0.046816	0.031938	-0.008669	0	0	0	-0.14486	-0.019718	0.047442	-0.15463	0.089182	0.094915	-0.14462	-0.060128	0.15341
409	3.8298	-0.1121	0.065429	0.097948	-0.047464	0.29223	0.18991	-0.067363	0.30295	0.16727	-0.046816	-0.15316	-0.008669	-0.046816	0.031938	-0.008669	0	0	0	-0.14488	-0.019716	0.047332	-0.1548	0.089175	0.094788	-0.14471	-0.060126	0.1533
410	3.8392	-0.11227	0.065467	0.097903	-0.047946	0.29238	0.19006	-0.067811	0.30308	0.16738	-0.046816	-0.15316	-0.008669	-0.046816	0.031938	-0.008669	0	0	0	-0.14489	-0.019715	0.047221	-0.15496	0.089167	0.094662	-0.14481	-0.060126	0.15319
411	3.8486	-0.11243	0.065505	0.097858	-0.048449	0.29252	0.19023	-0.06828	0.3032	0.16751	-0.046816	-0.15316	-0.008669	-0.046816	0.031938	-0.008669	0	0	0	-0.14491	-0.019714	0.047109	-0.15513	0.089157	0.094538	-0.1449	-0.060128	0.15307
412	3.8579	-0.11259	0.065543	0.097814	-0.048971	0.29266	0.1904	-0.068767	0.30333	0.16764	-0.046816	-0.15316	-0.008669	-0.046816	0.031938	-0.008669	0	0	0	-0.14491	-0.019713	0.046997	-0.1553	0.089147	0.094414	-0.14499	-0.060134	0.15296
413	3.8673	-0.11275	0.065581	0.097771	-0.049512	0.2928	0.19058	-0.069275	0.30345	0.16778	-0.046816	-0.15316	-0.008669	-0.046816	0.031938	-0.008669	0	0	0	-0.14492	-0.019712	0.046883	-0.15546	0.089136	0.094293	-0.14508	-0.060142	0.15284
414	3.8767	-0.11292	0.06562	0.097729	-0.050073	0.29294	0.19078	-0.069801	0.30357	0.16793	-0.046816	-0.15316	-0.008669	-0.046816	0.031938	-0.008669	0	0	0	-0.14492	-0.019711	0.046769	-0.15563	0.089124	0.094173	-0.14517	-0.060152	0.15272
415	3.8861	-0.11308	0.065657	0.097687	-0.050653	0.29307	0.19098	-0.070346	0.30368	0.16808	-0.046816	-0.15316	-0.008669	-0.046816	0.031938	-0.008669	0	0	0	-0.14492	-0.019709	0.046654	-0.15579	0.089112	0.094055	-0.14526	-0.060166	0.1526
416	3.8955	-0.11323	0.065695	0.097646	-0.051251	0.2932	0.1912	-0.070909	0.3038	0.16825	-0.046816	-0.15316	-0.008669	-0.046816	0.031938	-0.008669	0	0	0	-0.14491	-0.019708	0.046539	-0.15595	0.089098	0.093939	-0.14535	-0.060182	0.15248
417	3.9049	-0.11339	0.065733	0.097606	-0.051867	0.29333	0.19143	-0.071491	0.30391	0.16843	-0.046816	-0.15316	-0.008669	-0.046816	0.031938	-0.008669	0	0	0	-0.1449	-0.019707	0.046424	-0.15611	0.089083	0.093826	-0.14543	-0.060202	0.15236
418	3.9143	-0.11354	0.06577	0.097566	-0.052502	0.29345	0.19166	-0.072091	0.30402	0.16861	-0.046816	-0.15316	-0.008669	-0.046816	0.031938	-0.008669	0	0	0	-0.14489	-0.019706	0.046308	-0.15627	0.089068	0.093715	-0.14552	-0.060224	0.15224
419	3.9237	-0.11369	0.065807	0.097528	-0.053153	0.29357	0.19191	-0.072708	0.30413	0.1688	-0.046816	-0.15316	-0.008669	-0.046816	0.031938	-0.008669	0	0	0	-0.14487	-0.019705	0.046193	-0.15643	0.089051	0.093607	-0.1456	-0.06025	0.15212
420	3.933	-0.11384	0.065843	0.09749	-0.053822	0.29369	0.19217	-0.073342	0.30423	0.169	-0.046816	-0.15316	-0.008669	-0.046816	0.031938	-0.008669	0	0	0	-0.14485	-0.019704	0.046078	-0.15658	0.089034	0.093503	-0.14568	-0.060279	0.152
421	3.9424	-0.11399	0.065879	0.097454	-0.054508	0.2938	0.19243	-0.073994	0.30433	0.16921	-0.046816	-0.15316	-0.008669	-0.046816	0.031938	-0.008669	0	0	0	-0.14482	-0.019703	0.045962	-0.15674	0.089015	0.093401	-0.14576	-0.060311	0.15188
422	3.9518	-0.11413	0.065914	0.097418	-0.055211	0.29391	0.19271	-0.074663	0.30442	0.16943	-0.046816	-0.15316	-0.008669	-0.046816	0.031938	-0.008669	0	0	0	-0.14479	-0.019702	0.045848	-0.15688	0.088996	0.093303	-0.14584	-0.060346	0.15176
423	3.9612	-0.11427	0.065949	0.097383	-0.05593	0.29401	0.193	-0.075348	0.30452	0.16966	-0.046816	-0.15316	-0.008669	-0.046816	0.031938	-0.008669	0	0	0	-0.14475	-0.019701	0.045733	-0.15703	0.088976	0.093209	-0.14591	-0.060384	0.15164
424	3.9706	-0.1144	0.065983	0.097349	-0.056665	0.29411	0.1933	-0.076049	0.3046	0.16989	-0.046816	-0.15316	-0.008669	-0.046816	0.031938	-0.008669	0	0	0	-0.14471	-0.0197	0.04562	-0.15717	0.088955	0.093119	-0.14598	-0.060426	0.15152
425	3.98	-0.11454	0.066017	0.097316	-0.057416	0.2942	0.19361	-0.076767	0.30469	0.17014	-0.046816	-0.15316	-0.008669	-0.046816	0.031938	-0.008669	0	0	0	-0.14467	-0.019699	0.045507	-0.15731	0.088933	0.093033	-0.14605	-0.060472	0.1514
426	3.9894	-0.11466	0.066049	0.097285	-0.058182	0.29429	0.19393	-0.0775	0.30477	0.17039	-0.046816	-0.15316	-0.008669	-0.046816	0.031938	-0.008669	0	0	0	-0.14462	-0.019698	0.045395	-0.15744	0.08891	0.092951	-0.14612	-0.060521	0.15128
427	3.9987	-0.11478	0.066081	0.097254	-0.058963	0.29437	0.19426	-0.078248	0.30484	0.17065	-0.046816	-0.15316	-0.008669	-0.046816	0.031938	-0.008669	0	0	0	-0.14457	-0.019697	0.045284	-0.15757	0.088886	0.092874	-0.14618	-0.060574	0.15117
428	4.0081	-0.1149	0.066112	0.097226	-0.059783	0.29443	0.19462	-0.079034	0.3049	0.17094	-0.046816	-0.15316	-0.008669	-0.046816	0.031938	-0.008669	0	0	0	-0.14451	-0.019696	0.045172	-0.1577	0.088858	0.092801	-0.14624	-0.060635	0.15105
429	4.0175	-0.11503	0.066145	0.097205	-0.060682	0.29445	0.19503	-0.07989	0.30491	0.17128	-0.046816	-0.15316	-0.008669	-0.046816	0.031938	-0.008669	0	0	0	-0.14443	-0.019695	0.045057	-0.15784	0.088821	0.09273	-0.1463	-0.060712	0.15092
430	4.0269	-0.11516	0.066179	0.097189	-0.061657	0.29442	0.1955	-0.080816	0.30489	0.17168	-0.046816	-0.15316	-0.008669	-0.046816	0.031938	-0.008669	0	0	0	-0.14434	-0.019694	0.044938	-0.15797	0.088775	0.092662	-0.14635	-0.060805	0.15078
431	4.0363	-0.11529	0.066213	0.09718	-0.062704	0.29436	0.19601	-0.081808	0.30483	0.17213	-0.046816	-0.15316	-0.008669	-0.046816	0.031938	-0.008669	0	0	0	-0.14423	-0.019692	0.044816	-0.15811	0.08872	0.092597	-0.1464	-0.060912	0.15063
432	4.0457	-0.11542	0.066249	0.097176	-0.063821	0.29425	0.19657	-0.082863	0.30473	0.17262	-0.046816	-0.15316	-0.008669	-0.046816	0.031938	-0.008669	0	0	0	-0.14412	-0.019691	0.044691	-0.15826	0.088656	0.092535	-0.14645	-0.061035	0.15047
433	4.0551	-0.11556	0.066285	0.097178	-0.065004	0.2941	0.19718	-0.083978	0.3046	0.17317	-0.046816	-0.15316	-0.008669	-0.046816	0.031938	-0.008669	0	0	0	-0.14398	-0.019689	0.044562	-0.15841	0.088584	0.092476	-0.14649	-0.061171	0.1503
434	4.0645	-0.1157	0.066322	0.097185	-0.06625	0.29392	0.19784	-0.085151	0.30443	0.17377	-0.046816	-0.15316	-0.008669	-0.046816	0.031938	-0.008669	0	0	0	-0.14384	-0.019686	0.04443	-0.15856	0.088503	0.092419	-0.14653	-0.061321	0.15012
435	4.0738	-0.11584	0.06636	0.097197	-0.067556	0.29369	0.19854	-0.086379	0.30423	0.17441	-0.046816	-0.15316	-0.008669	-0.046816	0.031938	-0.008669	0	0	0	-0.14369	-0.019684	0.044295	-0.15871	0.088415	0.092366	-0.14656	-0.061485	0.14994
436	4.0832	-0.11598	0.066399	0.097215	-0.068919	0.29343	0.19929	-0.08766	0.30399	0.1751	-0.046816	-0.15316	-0.008669	-0.046816	0.031938	-0.008669	0	0	0	-0.14352	-0.019681	0.044157	-0.15887	0.088319	0.092315	-0.1466	-0.061661	0.14974
437	4.0926	-0.11612	0.066438	0.097238	-0.070336	0.29313	0.20008	-0.088989	0.30372	0.17583	-0.046816	-0.15316	-0.008669	-0.046816	0.031938	-0.008669	0	0	0	-0.14334	-0.019678	0.044015	-0.15902	0.088216	0.092268	-0.14663	-0.061849	0.14954
438	4.102	-0.11627	0.066478	0.097266	-0.071803	0.2928	0.20091	-0.090365	0.30342	0.1766	-0.046816	-0.15316	-0.008669	-0.046816	0.031938	-0.008669	0	0	0	-0.14315	-0.019675	0.043871	-0.15918	0.088105	0.092223	-0.14665	-0.062049	0.14932
439	4.1114	-0.11642	0.066519	0.097298	-0.073318	0.29243	0.20178	-0.091785	0.30308	0.17742	-0.046816	-0.15316	-0.008669	-0.046816	0.031938	-0.008669	0	0	0	-0.14295	-0.019671	0.043724	-0.15935	0.087987	0.092181	-0.14667	-0.06226	0.1491
440	4.1208	-0.11657	0.06656	0.097335	-0.074877	0.29203	0.20269	-0.093246	0.30272	0.17828	-0.046816	-0.15316	-0.008669	-0.046816	0.031938	-0.008669	0	0	0	-0.14275	-0.019667	0.043574	-0.15951	0.087863	0.092142	-0.14669	-0.062482	0.14887
441	4.1302	-0.11672	0.066602	0.097377	-0.076477	0.2916	0.20364	-0.094744	0.30232	0.17918	-0.046816	-0.15316	-0.008669	-0.046816	0.031938	-0.008669	0	0	0	-0.14253	-0.019663	0.043421	-0.15967	0.087732	0.092107	-0.14671	-0.062714	0.14863
442	4.1395	-0.11687	0.066644	0.097422	-0.078115	0.29113	0.20462	-0.096278	0.3019	0.18011	-0.046816	-0.15316	-0.008669	-0.046816	0.031938	-0.008669	0	0	0	-0.1423	-0.019659	0.043265	-0.15984	0.087594	0.092074	-0.14672	-0.062955	0.14838
